<svg xmlns="http://www.w3.org/2000/svg" width="22.117" height="28.488" viewBox="0 0 22.117 28.488"><defs><style>.a{fill:none;stroke:#fff;stroke-miterlimit:10;stroke-width:2px;}.b{fill:#fff;}</style></defs><g transform="translate(974.594 -574.605)"><rect class="a" width="20.117" height="16.397" rx="2" transform="translate(-973.594 585.696)"/><path class="a" d="M-958.157,585.406v-4.422a5.379,5.379,0,0,0-5.379-5.379h0a5.379,5.379,0,0,0-5.379,5.379v4.422"/><path class="b" d="M-961.923,594.376a1.613,1.613,0,0,0-1.613-1.613,1.613,1.613,0,0,0-1.613,1.613,1.61,1.61,0,0,0,.963,1.474v1.586a.65.65,0,0,0,.65.65.65.65,0,0,0,.65-.65V595.85A1.61,1.61,0,0,0-961.923,594.376Z"/></g></svg>